<mxfile host="app.diagrams.net" agent="Mozilla/5.0 (Windows NT 10.0; Win64; x64) AppleWebKit/537.36 (KHTML, like Gecko) Chrome/134.0.0.0 Safari/537.36" version="26.1.1">
  <diagram id="C5RBs43oDa-KdzZeNtuy" name="Page-1">
    <mxGraphModel dx="2183" dy="1164" grid="1" gridSize="10" guides="1" tooltips="1" connect="1" arrows="1" fold="1" page="1" pageScale="1" pageWidth="827" pageHeight="1169" math="0" shadow="0">
      <root>
        <mxCell id="WIyWlLk6GJQsqaUBKTNV-0" />
        <mxCell id="WIyWlLk6GJQsqaUBKTNV-1" parent="WIyWlLk6GJQsqaUBKTNV-0" />
        <mxCell id="jpGYlBpaC6IZTMkHL4Mq-36" style="edgeStyle=orthogonalEdgeStyle;rounded=0;orthogonalLoop=1;jettySize=auto;html=1;exitX=0.5;exitY=0.5;exitDx=0;exitDy=0;exitPerimeter=0;entryX=0;entryY=0.5;entryDx=0;entryDy=0;" edge="1" parent="WIyWlLk6GJQsqaUBKTNV-1" source="jpGYlBpaC6IZTMkHL4Mq-0" target="jpGYlBpaC6IZTMkHL4Mq-1">
          <mxGeometry relative="1" as="geometry" />
        </mxCell>
        <mxCell id="jpGYlBpaC6IZTMkHL4Mq-38" style="edgeStyle=orthogonalEdgeStyle;rounded=0;orthogonalLoop=1;jettySize=auto;html=1;exitX=0.5;exitY=0.5;exitDx=0;exitDy=0;exitPerimeter=0;entryX=0;entryY=0.5;entryDx=0;entryDy=0;" edge="1" parent="WIyWlLk6GJQsqaUBKTNV-1" source="jpGYlBpaC6IZTMkHL4Mq-0" target="jpGYlBpaC6IZTMkHL4Mq-3">
          <mxGeometry relative="1" as="geometry" />
        </mxCell>
        <mxCell id="jpGYlBpaC6IZTMkHL4Mq-39" style="edgeStyle=orthogonalEdgeStyle;rounded=0;orthogonalLoop=1;jettySize=auto;html=1;exitX=0.5;exitY=0.5;exitDx=0;exitDy=0;exitPerimeter=0;entryX=0;entryY=0.5;entryDx=0;entryDy=0;" edge="1" parent="WIyWlLk6GJQsqaUBKTNV-1" source="jpGYlBpaC6IZTMkHL4Mq-0" target="jpGYlBpaC6IZTMkHL4Mq-4">
          <mxGeometry relative="1" as="geometry" />
        </mxCell>
        <mxCell id="jpGYlBpaC6IZTMkHL4Mq-40" style="edgeStyle=orthogonalEdgeStyle;rounded=0;orthogonalLoop=1;jettySize=auto;html=1;exitX=0.5;exitY=0.5;exitDx=0;exitDy=0;exitPerimeter=0;entryX=0;entryY=0.5;entryDx=0;entryDy=0;" edge="1" parent="WIyWlLk6GJQsqaUBKTNV-1" source="jpGYlBpaC6IZTMkHL4Mq-0" target="jpGYlBpaC6IZTMkHL4Mq-5">
          <mxGeometry relative="1" as="geometry" />
        </mxCell>
        <mxCell id="jpGYlBpaC6IZTMkHL4Mq-41" style="edgeStyle=orthogonalEdgeStyle;rounded=0;orthogonalLoop=1;jettySize=auto;html=1;exitX=0.5;exitY=0.5;exitDx=0;exitDy=0;exitPerimeter=0;entryX=0;entryY=0.5;entryDx=0;entryDy=0;" edge="1" parent="WIyWlLk6GJQsqaUBKTNV-1" source="jpGYlBpaC6IZTMkHL4Mq-0" target="jpGYlBpaC6IZTMkHL4Mq-6">
          <mxGeometry relative="1" as="geometry" />
        </mxCell>
        <mxCell id="jpGYlBpaC6IZTMkHL4Mq-42" style="edgeStyle=orthogonalEdgeStyle;rounded=0;orthogonalLoop=1;jettySize=auto;html=1;exitX=0.5;exitY=0.5;exitDx=0;exitDy=0;exitPerimeter=0;entryX=0;entryY=0.5;entryDx=0;entryDy=0;" edge="1" parent="WIyWlLk6GJQsqaUBKTNV-1" source="jpGYlBpaC6IZTMkHL4Mq-0" target="jpGYlBpaC6IZTMkHL4Mq-7">
          <mxGeometry relative="1" as="geometry" />
        </mxCell>
        <mxCell id="jpGYlBpaC6IZTMkHL4Mq-43" style="edgeStyle=orthogonalEdgeStyle;rounded=0;orthogonalLoop=1;jettySize=auto;html=1;exitX=0.5;exitY=0.5;exitDx=0;exitDy=0;exitPerimeter=0;entryX=0;entryY=0.5;entryDx=0;entryDy=0;" edge="1" parent="WIyWlLk6GJQsqaUBKTNV-1" source="jpGYlBpaC6IZTMkHL4Mq-0" target="jpGYlBpaC6IZTMkHL4Mq-8">
          <mxGeometry relative="1" as="geometry" />
        </mxCell>
        <mxCell id="jpGYlBpaC6IZTMkHL4Mq-44" style="edgeStyle=orthogonalEdgeStyle;rounded=0;orthogonalLoop=1;jettySize=auto;html=1;exitX=0.5;exitY=0.5;exitDx=0;exitDy=0;exitPerimeter=0;entryX=0;entryY=0.5;entryDx=0;entryDy=0;" edge="1" parent="WIyWlLk6GJQsqaUBKTNV-1" source="jpGYlBpaC6IZTMkHL4Mq-0" target="jpGYlBpaC6IZTMkHL4Mq-9">
          <mxGeometry relative="1" as="geometry" />
        </mxCell>
        <mxCell id="jpGYlBpaC6IZTMkHL4Mq-45" style="edgeStyle=orthogonalEdgeStyle;rounded=0;orthogonalLoop=1;jettySize=auto;html=1;exitX=0.5;exitY=0.5;exitDx=0;exitDy=0;exitPerimeter=0;entryX=0;entryY=0.5;entryDx=0;entryDy=0;" edge="1" parent="WIyWlLk6GJQsqaUBKTNV-1" source="jpGYlBpaC6IZTMkHL4Mq-0" target="jpGYlBpaC6IZTMkHL4Mq-11">
          <mxGeometry relative="1" as="geometry" />
        </mxCell>
        <mxCell id="jpGYlBpaC6IZTMkHL4Mq-0" value="Passenger&lt;div&gt;&lt;br&gt;&lt;/div&gt;" style="shape=umlActor;verticalLabelPosition=bottom;verticalAlign=top;html=1;" vertex="1" parent="WIyWlLk6GJQsqaUBKTNV-1">
          <mxGeometry x="140" y="549.5" width="30" height="60" as="geometry" />
        </mxCell>
        <mxCell id="jpGYlBpaC6IZTMkHL4Mq-1" value="Make payment" style="ellipse;whiteSpace=wrap;html=1;" vertex="1" parent="WIyWlLk6GJQsqaUBKTNV-1">
          <mxGeometry x="310" y="110" width="140" height="70" as="geometry" />
        </mxCell>
        <mxCell id="jpGYlBpaC6IZTMkHL4Mq-2" value="Request refund" style="ellipse;whiteSpace=wrap;html=1;" vertex="1" parent="WIyWlLk6GJQsqaUBKTNV-1">
          <mxGeometry x="310" y="220" width="140" height="70" as="geometry" />
        </mxCell>
        <mxCell id="jpGYlBpaC6IZTMkHL4Mq-3" value="Check in online" style="ellipse;whiteSpace=wrap;html=1;" vertex="1" parent="WIyWlLk6GJQsqaUBKTNV-1">
          <mxGeometry x="310" y="330" width="140" height="70" as="geometry" />
        </mxCell>
        <mxCell id="jpGYlBpaC6IZTMkHL4Mq-4" value="Tag Baggage" style="ellipse;whiteSpace=wrap;html=1;" vertex="1" parent="WIyWlLk6GJQsqaUBKTNV-1">
          <mxGeometry x="310" y="440" width="140" height="70" as="geometry" />
        </mxCell>
        <mxCell id="jpGYlBpaC6IZTMkHL4Mq-5" value="Report lost baggage" style="ellipse;whiteSpace=wrap;html=1;" vertex="1" parent="WIyWlLk6GJQsqaUBKTNV-1">
          <mxGeometry x="310" y="549.5" width="140" height="70" as="geometry" />
        </mxCell>
        <mxCell id="jpGYlBpaC6IZTMkHL4Mq-6" value="Register" style="ellipse;whiteSpace=wrap;html=1;" vertex="1" parent="WIyWlLk6GJQsqaUBKTNV-1">
          <mxGeometry x="310" y="660" width="140" height="70" as="geometry" />
        </mxCell>
        <mxCell id="jpGYlBpaC6IZTMkHL4Mq-7" value="Login" style="ellipse;whiteSpace=wrap;html=1;" vertex="1" parent="WIyWlLk6GJQsqaUBKTNV-1">
          <mxGeometry x="310" y="770" width="140" height="70" as="geometry" />
        </mxCell>
        <mxCell id="jpGYlBpaC6IZTMkHL4Mq-8" value="Update Profile" style="ellipse;whiteSpace=wrap;html=1;" vertex="1" parent="WIyWlLk6GJQsqaUBKTNV-1">
          <mxGeometry x="310" y="880" width="140" height="70" as="geometry" />
        </mxCell>
        <mxCell id="jpGYlBpaC6IZTMkHL4Mq-9" value="Book ticket" style="ellipse;whiteSpace=wrap;html=1;" vertex="1" parent="WIyWlLk6GJQsqaUBKTNV-1">
          <mxGeometry x="310" y="990" width="140" height="70" as="geometry" />
        </mxCell>
        <mxCell id="jpGYlBpaC6IZTMkHL4Mq-11" value="Modify booking" style="ellipse;whiteSpace=wrap;html=1;" vertex="1" parent="WIyWlLk6GJQsqaUBKTNV-1">
          <mxGeometry x="310" y="1099" width="140" height="70" as="geometry" />
        </mxCell>
        <mxCell id="jpGYlBpaC6IZTMkHL4Mq-12" value="Cancel Booking" style="ellipse;whiteSpace=wrap;html=1;" vertex="1" parent="WIyWlLk6GJQsqaUBKTNV-1">
          <mxGeometry x="310" y="1210" width="140" height="70" as="geometry" />
        </mxCell>
        <mxCell id="jpGYlBpaC6IZTMkHL4Mq-13" value="Update ticket pricing" style="ellipse;whiteSpace=wrap;html=1;" vertex="1" parent="WIyWlLk6GJQsqaUBKTNV-1">
          <mxGeometry x="310" y="1320" width="140" height="70" as="geometry" />
        </mxCell>
        <mxCell id="jpGYlBpaC6IZTMkHL4Mq-14" value="Scedule flight" style="ellipse;whiteSpace=wrap;html=1;" vertex="1" parent="WIyWlLk6GJQsqaUBKTNV-1">
          <mxGeometry x="310" y="1430" width="140" height="70" as="geometry" />
        </mxCell>
        <mxCell id="jpGYlBpaC6IZTMkHL4Mq-15" value="Raise security alert" style="ellipse;whiteSpace=wrap;html=1;" vertex="1" parent="WIyWlLk6GJQsqaUBKTNV-1">
          <mxGeometry x="310" y="1540" width="140" height="70" as="geometry" />
        </mxCell>
        <mxCell id="jpGYlBpaC6IZTMkHL4Mq-16" value="Validate documents" style="ellipse;whiteSpace=wrap;html=1;" vertex="1" parent="WIyWlLk6GJQsqaUBKTNV-1">
          <mxGeometry x="310" y="1650" width="140" height="70" as="geometry" />
        </mxCell>
        <mxCell id="jpGYlBpaC6IZTMkHL4Mq-17" value="Screen passenger" style="ellipse;whiteSpace=wrap;html=1;" vertex="1" parent="WIyWlLk6GJQsqaUBKTNV-1">
          <mxGeometry x="310" y="1760" width="140" height="70" as="geometry" />
        </mxCell>
        <mxCell id="jpGYlBpaC6IZTMkHL4Mq-18" value="Respond to queries" style="ellipse;whiteSpace=wrap;html=1;" vertex="1" parent="WIyWlLk6GJQsqaUBKTNV-1">
          <mxGeometry x="310" y="1870" width="140" height="70" as="geometry" />
        </mxCell>
        <mxCell id="jpGYlBpaC6IZTMkHL4Mq-19" value="Provide Customer Support" style="ellipse;whiteSpace=wrap;html=1;" vertex="1" parent="WIyWlLk6GJQsqaUBKTNV-1">
          <mxGeometry x="310" y="1980" width="140" height="70" as="geometry" />
        </mxCell>
        <mxCell id="jpGYlBpaC6IZTMkHL4Mq-20" value="Handle Complaints" style="ellipse;whiteSpace=wrap;html=1;" vertex="1" parent="WIyWlLk6GJQsqaUBKTNV-1">
          <mxGeometry x="310" y="2090" width="140" height="70" as="geometry" />
        </mxCell>
        <mxCell id="jpGYlBpaC6IZTMkHL4Mq-21" value="Interface with booking" style="ellipse;whiteSpace=wrap;html=1;" vertex="1" parent="WIyWlLk6GJQsqaUBKTNV-1">
          <mxGeometry x="310" y="2200" width="140" height="70" as="geometry" />
        </mxCell>
        <mxCell id="jpGYlBpaC6IZTMkHL4Mq-22" value="Interface with Passenger" style="ellipse;whiteSpace=wrap;html=1;" vertex="1" parent="WIyWlLk6GJQsqaUBKTNV-1">
          <mxGeometry x="310" y="2310" width="140" height="70" as="geometry" />
        </mxCell>
        <mxCell id="jpGYlBpaC6IZTMkHL4Mq-23" value="Track Flights" style="ellipse;whiteSpace=wrap;html=1;" vertex="1" parent="WIyWlLk6GJQsqaUBKTNV-1">
          <mxGeometry x="310" y="2420" width="140" height="70" as="geometry" />
        </mxCell>
        <mxCell id="jpGYlBpaC6IZTMkHL4Mq-24" value="Send Notifications" style="ellipse;whiteSpace=wrap;html=1;" vertex="1" parent="WIyWlLk6GJQsqaUBKTNV-1">
          <mxGeometry x="310" y="2530" width="140" height="70" as="geometry" />
        </mxCell>
        <mxCell id="jpGYlBpaC6IZTMkHL4Mq-25" value="Manage Bookings" style="ellipse;whiteSpace=wrap;html=1;" vertex="1" parent="WIyWlLk6GJQsqaUBKTNV-1">
          <mxGeometry x="310" y="2640" width="140" height="70" as="geometry" />
        </mxCell>
        <mxCell id="jpGYlBpaC6IZTMkHL4Mq-37" style="edgeStyle=orthogonalEdgeStyle;rounded=0;orthogonalLoop=1;jettySize=auto;html=1;exitX=0.5;exitY=0.5;exitDx=0;exitDy=0;exitPerimeter=0;entryX=-0.003;entryY=0.62;entryDx=0;entryDy=0;entryPerimeter=0;" edge="1" parent="WIyWlLk6GJQsqaUBKTNV-1" source="jpGYlBpaC6IZTMkHL4Mq-0" target="jpGYlBpaC6IZTMkHL4Mq-2">
          <mxGeometry relative="1" as="geometry" />
        </mxCell>
      </root>
    </mxGraphModel>
  </diagram>
</mxfile>
